<?xml version="1.0" encoding="UTF-8"?>
<!DOCTYPE svg PUBLIC "-//W3C//DTD SVG 1.1//EN" "http://www.w3.org/Graphics/SVG/1.1/DTD/svg11.dtd">
<svg xmlns="http://www.w3.org/2000/svg" version="1.1" width="32px" height="32px" style="shape-rendering:geometricPrecision; text-rendering:geometricPrecision; image-rendering:optimizeQuality; fill-rule:evenodd; clip-rule:evenodd" xmlns:xlink="http://www.w3.org/1999/xlink">
<g><path style="opacity:0.867" fill="#05a657" d="M 16.5,-0.5 C 17.5,-0.5 18.5,-0.5 19.5,-0.5C 21.2143,0.738379 23.2143,1.40505 25.5,1.5C 25.552,3.90291 25.2186,6.23625 24.5,8.5C 24.1667,8.5 23.8333,8.5 23.5,8.5C 21.1164,3.79139 18.4498,3.45806 15.5,7.5C 15.1667,7.5 14.8333,7.5 14.5,7.5C 14.5,6.5 14.5,5.5 14.5,4.5C 15.5375,3.06967 16.2041,1.40301 16.5,-0.5 Z"/></g>
<g><path style="opacity:0.863" fill="#5393cb" d="M 14.5,4.5 C 14.5,5.5 14.5,6.5 14.5,7.5C 14.5,8.16667 14.5,8.83333 14.5,9.5C 13.8333,9.5 13.5,9.83333 13.5,10.5C 11.5295,9.83837 9.52952,9.17171 7.5,8.5C 5.94987,5.20661 6.94987,3.20661 10.5,2.5C 12.1705,2.66821 13.5039,3.33487 14.5,4.5 Z"/></g>
<g><path style="opacity:0.827" fill="#5391ca" d="M 23.5,8.5 C 23.8333,8.5 24.1667,8.5 24.5,8.5C 27.188,8.1658 29.5214,8.83247 31.5,10.5C 31.5,11.8333 31.5,13.1667 31.5,14.5C 28.612,15.0779 25.612,15.0779 22.5,14.5C 22.5,13.8333 22.5,13.1667 22.5,12.5C 23.2341,11.2921 23.5674,9.95875 23.5,8.5 Z"/></g>
<g><path style="opacity:0.857" fill="#04a755" d="M 14.5,9.5 C 16.112,13.26 18.7787,14.26 22.5,12.5C 22.5,13.1667 22.5,13.8333 22.5,14.5C 22.428,16.3109 21.5947,17.6443 20,18.5C 16.9712,17.7152 14.1379,16.5485 11.5,15C 12.2666,13.5295 12.9332,12.0295 13.5,10.5C 13.5,9.83333 13.8333,9.5 14.5,9.5 Z"/></g>
<g><path style="opacity:1" fill="#01d843" d="M 23.5,8.5 C 23.5674,9.95875 23.2341,11.2921 22.5,12.5C 18.7787,14.26 16.112,13.26 14.5,9.5C 14.5,8.83333 14.5,8.16667 14.5,7.5C 14.8333,7.5 15.1667,7.5 15.5,7.5C 18.4498,3.45806 21.1164,3.79139 23.5,8.5 Z"/></g>
<g><path style="opacity:1" fill="#019e40" d="M 15.5,7.5 C 16.4959,7.58577 17.3292,7.25244 18,6.5C 19.5728,7.08647 21.0728,8.25314 22.5,10C 20.6631,11.4803 18.6631,11.4803 16.5,10C 15.7476,9.32924 15.4142,8.4959 15.5,7.5 Z"/></g>
<g><path style="opacity:0.861" fill="#178b52" d="M 10.5,21.5 C 7.03808,22.4816 3.37141,22.815 -0.5,22.5C -0.5,22.1667 -0.5,21.8333 -0.5,21.5C 2.13862,19.8442 4.80528,18.1776 7.5,16.5C 8.95244,17.9397 9.95244,19.6064 10.5,21.5 Z"/></g>
<g><path style="opacity:0.5" fill="#f4b400" d="M 27.5,17.5 C 31.1844,19.2033 31.351,21.2033 28,23.5C 24.8981,21.6627 24.7314,19.6627 27.5,17.5 Z"/></g>
<g><path style="opacity:0.859" fill="#6d6d67" d="M 10.5,21.5 C 12.7598,24.5207 13.0931,27.8541 11.5,31.5C 7.5,31.5 3.5,31.5 -0.5,31.5C -0.5,28.5 -0.5,25.5 -0.5,22.5C 3.37141,22.815 7.03808,22.4816 10.5,21.5 Z"/></g>
<g><path style="opacity:0.629" fill="#f1a201" d="M 19.5,21.5 C 24.0239,23.3271 24.3572,25.6604 20.5,28.5C 19.6184,27.2402 18.6184,26.0736 17.5,25C 18.8228,24.1841 19.4894,23.0174 19.5,21.5 Z"/></g>
</svg>
