<?xml version="1.0" encoding="UTF-8"?>
<!DOCTYPE svg PUBLIC "-//W3C//DTD SVG 1.1//EN" "http://www.w3.org/Graphics/SVG/1.1/DTD/svg11.dtd">
<svg xmlns="http://www.w3.org/2000/svg" version="1.1" width="32px" height="32px" style="shape-rendering:geometricPrecision; text-rendering:geometricPrecision; image-rendering:optimizeQuality; fill-rule:evenodd; clip-rule:evenodd" xmlns:xlink="http://www.w3.org/1999/xlink">
<g><path style="opacity:1" fill="#eb8e1d" d="M 20.5,4.5 C 20.5,4.83333 20.5,5.16667 20.5,5.5C 19.15,10.0143 16.15,11.8476 11.5,11C 7.09984,6.50141 7.76651,3.00141 13.5,0.5C 16.3127,1.07073 18.646,2.40406 20.5,4.5 Z"/></g>
<g><path style="opacity:0.984" fill="#1c0f12" d="M 10.5,-0.5 C 12.8333,-0.5 15.1667,-0.5 17.5,-0.5C 18.925,0.922032 19.925,2.5887 20.5,4.5C 18.646,2.40406 16.3127,1.07073 13.5,0.5C 7.76651,3.00141 7.09984,6.50141 11.5,11C 16.15,11.8476 19.15,10.0143 20.5,5.5C 20.3505,6.55198 20.5172,7.55198 21,8.5C 22.7343,7.36213 24.5676,6.86213 26.5,7C 27.2181,9.46074 27.8847,11.9607 28.5,14.5C 29.3569,15.4252 30.3569,16.0919 31.5,16.5C 31.5,18.5 31.5,20.5 31.5,22.5C 28.6232,23.3726 26.2898,25.0392 24.5,27.5C 23.7542,28.7362 23.4208,30.0695 23.5,31.5C 21.8333,31.5 20.1667,31.5 18.5,31.5C 16.7044,28.9521 15.0378,28.9521 13.5,31.5C 11.8333,31.5 10.1667,31.5 8.5,31.5C 6.21722,27.5316 3.88389,23.5316 1.5,19.5C 0.816537,19.8627 0.14987,20.1961 -0.5,20.5C -0.5,19.8333 -0.5,19.1667 -0.5,18.5C 0.833333,18.1667 0.833333,17.8333 -0.5,17.5C -0.5,16.5 -0.5,15.5 -0.5,14.5C 5.53653,12.9393 8.36987,8.93934 8,2.5C 9.04499,1.62656 9.87833,0.626561 10.5,-0.5 Z"/></g>
<g><path style="opacity:1" fill="#7b3952" d="M 19.5,10.5 C 20.1667,10.5 20.8333,10.5 21.5,10.5C 21.5,11.5 21.5,12.5 21.5,13.5C 22.8333,13.5 24.1667,13.5 25.5,13.5C 26.1667,13.5 26.5,13.8333 26.5,14.5C 22.6202,16.0572 20.2869,14.7239 19.5,10.5 Z"/></g>
<g><path style="opacity:1" fill="#f575a5" d="M 19.5,10.5 C 20.2869,14.7239 22.6202,16.0572 26.5,14.5C 27.265,15.6602 28.265,16.6602 29.5,17.5C 30.4287,18.6888 30.762,20.0222 30.5,21.5C 25.7092,22.6236 23.0425,25.6236 22.5,30.5C 21.5,30.5 20.5,30.5 19.5,30.5C 19.5,29.5 19.5,28.5 19.5,27.5C 17.1667,27.5 14.8333,27.5 12.5,27.5C 12.5,28.5 12.5,29.5 12.5,30.5C 11.5,30.5 10.5,30.5 9.5,30.5C 9.65668,29.1266 9.49001,27.7932 9,26.5C 4.7827,23.617 3.44937,19.617 5,14.5C 7.2147,9.91761 10.2147,9.25094 14,12.5C 16.1206,12.3025 17.9539,11.6358 19.5,10.5 Z"/></g>
<g><path style="opacity:1" fill="#e5689a" d="M 25.5,13.5 C 24.1667,13.5 22.8333,13.5 21.5,13.5C 21.5,12.5 21.5,11.5 21.5,10.5C 22.287,8.89578 23.6203,8.22911 25.5,8.5C 25.5,10.1667 25.5,11.8333 25.5,13.5 Z"/></g>
</svg>
